<svg version="1.1" xmlns="http://www.w3.org/2000/svg" style="display: block;" viewBox="0 0 2048 2048" width="1024" height="1024" preserveAspectRatio="none">
<path transform="translate(0,0)" fill="rgb(235,51,54)" d="M 0 0 L 2048 0 L 2048 2048 L 0 2048 L 0 0 z"/>
<path transform="translate(0,0)" fill="rgb(254,254,254)" d="M 993.572 482.42 C 1001.02 481.604 1016.5 481.778 1024.2 481.751 C 1092.27 481.561 1159.77 494.158 1223.18 518.889 C 1245.96 528.007 1271.92 541.875 1294.08 553.038 C 1285.91 556.208 1276.52 558.599 1268.2 561.728 C 1258.08 565.535 1248.12 569.719 1238.14 573.877 C 1214.97 563.137 1191.13 553.932 1166.75 546.322 C 1040.81 508.617 905.083 522.065 788.988 583.749 C 671.619 647.291 584.201 754.739 545.864 882.58 C 516.286 985.19 519.847 1094.52 556.039 1194.99 C 610.63 1344.5 733.371 1457.35 885.638 1502.34 C 1011.32 1538.43 1146.13 1523.94 1261.26 1461.96 C 1374.64 1400.06 1464.08 1293.74 1500.62 1169.37 C 1540.15 1039.47 1525.16 899.077 1459.09 780.453 C 1439.25 743.874 1413.94 710.991 1385.46 680.806 C 1392.17 663.971 1396.78 651.844 1401.48 634.303 C 1494.79 723.543 1552.48 843.665 1563.78 972.284 C 1577.55 1116.78 1532.77 1260.76 1439.47 1371.95 C 1346.27 1483.04 1212.5 1552.22 1067.98 1564.07 C 919.423 1576.64 781.608 1529.18 668.448 1433.27 C 560.947 1341.13 494.559 1209.98 483.954 1068.79 C 471.061 926.303 515.852 784.595 608.297 675.401 C 688.234 582.131 788.542 520.439 908.76 493.562 C 937.112 487.223 964.655 484.588 993.572 482.42 z"/>
<path transform="translate(0,0)" fill="rgb(254,254,254)" d="M 1175.51 791.384 C 1184.83 791.247 1198.5 791.816 1203.07 801.227 C 1222.39 840.991 1241.25 882.43 1260.11 922.412 C 1275.59 895.956 1287.1 863.088 1301.79 835.04 C 1313.87 811.984 1318.56 777.353 1355.92 796.591 C 1364.12 800.812 1366.69 812.42 1367.98 820.987 C 1372.95 854.078 1375.98 887.614 1379.73 920.902 C 1382.11 941.566 1384.31 962.25 1386.33 982.952 C 1389.75 1017.86 1396.99 1029.49 1355.96 1028.81 C 1333.98 1028.44 1331.99 1022.7 1330.55 1001.08 C 1330.03 993.238 1329.31 985.244 1328.73 977.757 C 1326.52 955.045 1323.75 932.155 1322.34 909.404 C 1314.24 924.991 1291.33 979.966 1277.93 987.205 C 1269.53 991.741 1252.22 992.171 1243.1 989.159 C 1229.43 984.643 1206.29 925.922 1198.41 911.18 C 1196.12 934.207 1193.49 957.199 1190.52 980.148 C 1189.12 991.491 1188.67 1004.31 1185.42 1015.23 C 1184.09 1019.73 1181.15 1024.08 1176.88 1026.23 C 1168.56 1030.41 1146.15 1029.75 1137.46 1026.46 C 1134.45 1025.32 1130.65 1022.95 1129.73 1019.63 C 1126.8 1009.03 1148.98 818.14 1155.27 806.853 C 1159.86 798.604 1166.45 793.778 1175.51 791.384 z"/>
<path transform="translate(0,0)" fill="rgb(254,254,254)" d="M 1272.39 1190.07 C 1286.32 1165.1 1296.47 1139.12 1310.13 1112.81 C 1323.08 1087.85 1333.43 1044.28 1371.2 1069.57 C 1380.75 1075.96 1381.82 1086.12 1382.93 1096.97 C 1389.33 1159.22 1395.9 1221.66 1400.94 1284.02 C 1402.39 1302.01 1358.65 1300.47 1350.7 1293.7 C 1342.89 1287.05 1342.71 1259.83 1341.6 1248.79 L 1334.32 1179.53 C 1327.96 1193.68 1304.1 1251.3 1292.92 1257.08 C 1284.75 1261.31 1263.38 1261.95 1254.71 1258.55 C 1245.06 1254.76 1217.79 1193.73 1211.5 1180.94 C 1208.63 1213.52 1203.63 1247.49 1200.42 1280.14 C 1200.17 1282.66 1196.38 1292.64 1194.19 1293.82 C 1183.4 1299.66 1163.32 1297.27 1151.14 1296.92 C 1148.03 1294.83 1144.62 1292.82 1143.18 1289.16 C 1140.15 1281.42 1163.13 1089.22 1166.91 1080.24 C 1170.6 1071.48 1177.52 1066.93 1185.9 1063.3 C 1196.06 1062.14 1208.93 1061.48 1214.99 1071.13 C 1224.06 1085.57 1230.99 1102.79 1238.19 1118.28 L 1272.39 1190.07 z"/>
<path transform="translate(0,0)" fill="rgb(254,254,254)" d="M 786.553 1060.42 C 807.906 1058.97 829.274 1063.05 848.587 1072.27 C 864.096 1079.84 887.974 1092.23 876.898 1113.04 C 870.757 1124.37 860.328 1132.77 847.945 1136.35 C 839.856 1133.8 832.87 1129.78 825.664 1125.29 C 804.14 1111.88 770.514 1113.18 751.861 1131.44 C 722.455 1160.22 726.985 1217.76 764.881 1237.55 C 784.033 1247.54 807.298 1244.59 827.111 1238.43 C 826.905 1231.7 826.996 1224.47 826.959 1217.69 C 816.374 1217.93 792.843 1220.5 785.384 1212.95 C 778.076 1205.56 777.254 1180.2 785.136 1173.13 C 794.688 1164.56 824.86 1167.72 837.5 1167.83 C 854.82 1167.63 884.013 1163.89 883.372 1188.54 C 882.889 1207.13 888.301 1261.02 877.55 1275.14 C 862.067 1290.48 832.266 1297.36 812.188 1300.08 C 696.586 1315.75 633.091 1189.58 701.806 1100.99 C 722.137 1074.78 752.844 1063 786.553 1060.42 z"/>
<path transform="translate(0,0)" fill="rgb(254,254,254)" d="M 920.758 793.162 C 931.218 792.755 951.245 790.856 958.51 798.288 C 966.225 806.181 963.698 834.556 963.828 845.489 C 964.155 873.059 963.175 900.569 963.989 928.024 C 964.755 953.852 976.185 980.461 1006.74 976.74 C 1050.33 971.952 1045.06 929.667 1044.92 897.451 L 1044.46 828.589 C 1044.36 812.685 1041.51 793.091 1063.59 792.981 C 1076.83 792.914 1101.94 788.358 1103.58 808.237 C 1105.12 826.815 1104.01 847.383 1103.96 866.25 C 1103.98 901.93 1108.21 952.105 1092.82 982.902 C 1082.15 1004.17 1063.3 1020.19 1040.58 1027.29 C 1011.4 1036.6 977.844 1035.3 950.459 1020.84 C 930.215 1010.39 915.12 992.12 908.672 970.269 C 899.274 938.854 905.443 890.194 903.98 856.569 C 903.356 842.244 903.635 826.615 903.661 812.196 C 903.682 799.948 909.981 795.82 920.758 793.162 z"/>
<path transform="translate(0,0)" fill="rgb(254,254,254)" d="M 928.788 1063.3 C 938.514 1063.09 948.993 1062.16 958.657 1063.38 C 963.109 1063.94 967.956 1065.1 970.558 1069.08 C 984.136 1089.88 962.807 1203.09 984.645 1230.67 C 990.849 1238.51 999.788 1242.65 1009.59 1243.82 C 1020.9 1245.16 1033.47 1243.03 1042.54 1235.77 C 1049.34 1230.34 1053.98 1222.39 1056.12 1214 C 1059.11 1202.29 1058.5 1188.39 1058.54 1176.28 L 1058.4 1116.33 C 1058.37 1104.27 1058.19 1092.84 1059.07 1080.73 C 1060.34 1063.25 1072.34 1063.27 1086.83 1063.03 C 1100.38 1062.8 1107.7 1061.76 1115.78 1074.09 C 1116.88 1092.18 1116.28 1113.17 1116.15 1131.5 C 1115.98 1162.4 1118.21 1194.28 1113.62 1224.83 C 1103.04 1295.27 1021.49 1318.09 963.608 1289.68 C 942.887 1279.5 927.549 1257.17 920.553 1235.66 C 918.215 1228.26 916.761 1220.61 916.223 1212.86 C 914.419 1187.85 916.893 1155.24 916.076 1129.62 C 916.578 1113.85 914.89 1097.89 915.478 1082.15 C 915.852 1072.15 919.447 1066.04 928.788 1063.3 z"/>
<path transform="translate(0,0)" fill="rgb(2,194,77)" d="M 1335.35 574.2 C 1348.15 570.591 1370.61 563.29 1384.05 566.862 C 1394.24 569.571 1380.59 600.292 1381.46 604.706 C 1385.38 624.655 1377.06 626.76 1369.37 643.595 L 1372.52 654.958 C 1366.06 668.523 1361.25 675.016 1351.08 686.231 L 1350.92 696.811 C 1317.8 739.297 1254.24 762.478 1202.35 745.788 C 1191.96 756.771 1182.1 785.022 1173.73 790.139 L 1172.09 789.607 C 1169.89 785.278 1169.12 782.424 1167.67 777.846 C 1169.85 773.778 1172.12 773.6 1174.56 768.211 C 1179.18 760.543 1187.9 745.536 1191.14 737.197 C 1189.66 731.098 1188.06 724.751 1187.24 718.532 C 1180.81 669.661 1210.87 619.325 1251.56 593.69 C 1255.9 593.373 1259.86 593.086 1264.23 592.993 C 1272.02 587.451 1278.86 581.935 1287.69 578.252 L 1299.58 579.706 C 1312.74 573.035 1322.13 564.373 1335.35 574.2 z"/>
<path transform="translate(0,0)" fill="rgb(2,194,77)" d="M 791.573 1319.13 C 795.087 1318.96 799.749 1318.86 802.724 1320.9 C 836.165 1343.81 868.826 1363.72 907.203 1378.15 C 948.543 1393.97 992.434 1402.07 1036.7 1402.06 C 1127.39 1402.58 1200.04 1373.49 1273.47 1323.18 C 1287.82 1313.34 1303.86 1322.72 1302.73 1339.73 C 1301.98 1350.92 1295.23 1355.96 1287.44 1362.66 C 1262.8 1381.76 1232.61 1397.66 1203.94 1409.73 C 1115.33 1447.04 1015 1456.59 921.842 1430.06 C 906.147 1425.59 890.692 1419.43 875.589 1413.28 C 853.071 1404.11 783.004 1369.83 774.397 1347.49 C 772.178 1341.73 772.616 1335.63 775.451 1330.15 C 778.867 1323.56 784.817 1321.19 791.573 1319.13 z"/>
<path transform="translate(0,0)" fill="rgb(254,254,254)" d="M 780.924 879.584 C 791.715 862.14 802.639 844.778 813.694 827.5 C 820.487 816.823 831.796 794.659 844.044 790.937 C 857.804 786.755 891.944 799.713 883.585 819.233 C 879.146 829.602 871.833 839.865 865.785 849.505 C 852.215 871.074 838.444 892.516 824.472 913.828 C 821.816 918.065 811.778 932.764 810.894 936.514 C 805.122 962.229 813.138 992.35 807.068 1017.67 C 803.309 1033.35 765.917 1030.52 755.567 1025.15 C 748.959 1017.02 750.818 997.791 750.835 987.317 L 750.905 939.572 C 745.501 929.536 736.897 917.509 730.47 907.771 C 717.18 887.876 704.09 867.849 691.203 847.692 C 685.004 837.949 676.134 824.838 672.004 814.391 C 679.539 797.756 691.673 794.141 708.191 790.241 C 728.799 788.813 738.771 813.474 748.494 829.01 C 759.035 846.039 769.847 862.899 780.924 879.584 z"/>
<path transform="translate(0,0)" fill="rgb(2,194,77)" d="M 1152.5 753.346 C 1140.48 752.565 1131.91 753.993 1119.37 751.225 C 1108.9 749.875 1085.16 736.762 1079.12 729.39 C 1078.69 728.866 1058.71 692.826 1059.16 693.994 C 1054.33 681.419 1044.44 627.804 1049.43 617.252 C 1057.29 611.5 1077.93 621.931 1089.37 622.744 C 1094.73 626.842 1126.17 643.611 1131.54 644.469 C 1156.65 670.664 1177.13 707.918 1162.33 744.392 C 1159.86 750.282 1159.13 752.29 1152.5 753.346 z"/>
<path transform="translate(0,0)" fill="rgb(42,162,84)" d="M 1152.5 753.346 C 1159.13 752.29 1159.86 750.282 1162.33 744.392 C 1163.74 750.558 1170.34 763.663 1174.56 768.211 C 1172.12 773.6 1169.85 773.778 1167.67 777.846 C 1162.72 766.799 1160.11 762.761 1152.5 753.346 z"/>
</svg>
